<svg width="1280" viewBox="0 0 680 280" xmlns="http://www.w3.org/2000/svg">
<rect x="0" y="0" width="680" height="280" rx="12" fill="#f8f7f4"/>
<g transform="translate(60, 40)">
  <line x1="0" y1="25" x2="70" y2="25" stroke="#1D9E75" stroke-width="2" opacity="0.7"/>
  <line x1="0" y1="55" x2="70" y2="55" stroke="#1D9E75" stroke-width="2" opacity="0.7"/>
  <line x1="0" y1="85" x2="70" y2="85" stroke="#1D9E75" stroke-width="2" opacity="0.7"/>
  <line x1="0" y1="115" x2="70" y2="115" stroke="#1D9E75" stroke-width="2" opacity="0.7"/>
  <line x1="0" y1="145" x2="70" y2="145" stroke="#1D9E75" stroke-width="2" opacity="0.7"/>
  <line x1="0" y1="175" x2="70" y2="175" stroke="#1D9E75" stroke-width="2" opacity="0.7"/>
  <line x1="0" y1="205" x2="70" y2="205" stroke="#1D9E75" stroke-width="2" opacity="0.7"/>
  <rect x="75" y="10" width="20" height="210" rx="3" fill="#378ADD" opacity="0.2"/>
  <rect x="80" y="10" width="10" height="210" rx="2" fill="#378ADD" opacity="0.4"/>
  <line x1="100" y1="55" x2="170" y2="55" stroke="#E24B4A" stroke-width="1.5" opacity="0.6" stroke-dasharray="4 3"/>
  <line x1="100" y1="85" x2="155" y2="85" stroke="#E24B4A" stroke-width="1.5" opacity="0.5" stroke-dasharray="4 3"/>
  <line x1="100" y1="145" x2="165" y2="145" stroke="#D4A843" stroke-width="1.5" opacity="0.5" stroke-dasharray="4 3"/>
  <line x1="100" y1="175" x2="145" y2="175" stroke="#D4A843" stroke-width="1.5" opacity="0.4" stroke-dasharray="4 3"/>
  <line x1="100" y1="25" x2="170" y2="25" stroke="#1D9E75" stroke-width="1.5" opacity="0.3"/>
  <line x1="100" y1="115" x2="170" y2="115" stroke="#1D9E75" stroke-width="1.5" opacity="0.3"/>
  <line x1="100" y1="205" x2="170" y2="205" stroke="#1D9E75" stroke-width="1.5" opacity="0.3"/>
  <circle cx="130" cy="100" r="14" fill="none" stroke="#378ADD" stroke-width="1.5" opacity="0.6"/>
  <line x1="140" y1="110" x2="150" y2="120" stroke="#378ADD" stroke-width="1.5" opacity="0.6" stroke-linecap="round"/>
</g>
<text x="280" y="110" font-family="system-ui, -apple-system, sans-serif" font-size="42" font-weight="500" fill="#2c2c2a" letter-spacing="-1">crocking</text>
<text x="280" y="145" font-family="system-ui, -apple-system, sans-serif" font-size="15" font-weight="400" fill="#5f5e5a">AI authorship detector for git repositories</text>
<text x="280" y="185" font-family="system-ui, -apple-system, sans-serif" font-size="12" font-weight="400" fill="#888780">rub the surface, see what transfers</text>
<text x="280" y="202" font-family="system-ui, -apple-system, sans-serif" font-size="12" font-weight="400" fill="#888780">commit patterns, timing signals, tool markers, code style</text>
<rect x="280" y="222" width="56" height="22" rx="4" fill="#f1efe8" stroke="#d3d1c7" stroke-width="0.5"/>
<text x="308" y="237" font-family="monospace" font-size="10" font-weight="400" fill="#888780" text-anchor="middle">goweft</text>
</svg>